<svg xmlns="http://www.w3.org/2000/svg" viewBox="0 0 10.39 15.68"><title>Asset 4</title><g id="Layer_2" data-name="Layer 2"><g id="Layer_1-2" data-name="Layer 1"><path d="M.69,3.34a4.57,4.57,0,0,1,1-1.76A4.48,4.48,0,0,1,3.27.42,5.55,5.55,0,0,1,5.48,0,6,6,0,0,1,7.4.3,4.82,4.82,0,0,1,9,1.16a4.14,4.14,0,0,1,1,1.41,4.7,4.7,0,0,1,.38,1.94,4.8,4.8,0,0,1-.32,1.84,5,5,0,0,1-.85,1.42A7.29,7.29,0,0,1,8,8.91c-.46.34-.93.67-1.42,1l-1.46.87a11.26,11.26,0,0,0-1.34.92,6.07,6.07,0,0,0-1,1.05A3,3,0,0,0,2.19,14h8.05v1.66H0A8.17,8.17,0,0,1,.5,13.3a6.32,6.32,0,0,1,1-1.71,7.1,7.1,0,0,1,1.35-1.28,18.55,18.55,0,0,1,1.57-1c.66-.42,1.25-.8,1.75-1.14A8.12,8.12,0,0,0,7.4,7.08a3.92,3.92,0,0,0,.75-1.15A3.78,3.78,0,0,0,8.4,4.49a2.7,2.7,0,0,0-.24-1.16,2.81,2.81,0,0,0-.65-.9,2.72,2.72,0,0,0-1-.57,3.52,3.52,0,0,0-1.18-.2A2.72,2.72,0,0,0,4,2a3,3,0,0,0-1,.9,3.7,3.7,0,0,0-.54,1.25,5.51,5.51,0,0,0-.15,1.4H.44A6.34,6.34,0,0,1,.69,3.34Z"/></g></g></svg>