<svg xmlns="http://www.w3.org/2000/svg" xmlns:xlink="http://www.w3.org/1999/xlink" viewBox="0 0 22.78 29.24"><defs><style>.cls-1,.cls-2{fill:none;}.cls-1{clip-rule:evenodd;}.cls-3{clip-path:url(#clip-path);}.cls-4{clip-path:url(#clip-path-2);}.cls-5{fill:#fff;}</style><clipPath id="clip-path" transform="translate(-738.59 -419.7)"><path class="cls-1" d="M744.43,428.8a5.76,5.76,0,0,1,1.18-2.16,5.55,5.55,0,0,1,2-1.43,6.81,6.81,0,0,1,2.72-.51,7.44,7.44,0,0,1,2.35.36,5.75,5.75,0,0,1,1.92,1.06,4.94,4.94,0,0,1,1.29,1.72,5.64,5.64,0,0,1,.48,2.39,6,6,0,0,1-.39,2.25,6.38,6.38,0,0,1-1,1.75,8.83,8.83,0,0,1-1.49,1.4q-.84.62-1.74,1.19l-1.8,1.07a14.32,14.32,0,0,0-1.64,1.13,7.54,7.54,0,0,0-1.28,1.29,3.64,3.64,0,0,0-.69,1.59h9.89v2H743.59a10.16,10.16,0,0,1,.61-2.92,7.74,7.74,0,0,1,1.21-2.1,9.07,9.07,0,0,1,1.66-1.57q.92-.68,1.93-1.28,1.22-.76,2.15-1.4a9.66,9.66,0,0,0,1.54-1.29,4.34,4.34,0,0,0,1.24-3.18,3.33,3.33,0,0,0-.3-1.43,3.43,3.43,0,0,0-2-1.81,4.27,4.27,0,0,0-1.44-.24,3.35,3.35,0,0,0-1.73.42,3.6,3.6,0,0,0-1.18,1.1,4.61,4.61,0,0,0-.67,1.53,6.56,6.56,0,0,0-.18,1.72h-2.31a7.75,7.75,0,0,1,.3-2.71"/></clipPath><clipPath id="clip-path-2" transform="translate(-738.59 -419.7)"><rect class="cls-2" width="1440" height="3260"/></clipPath></defs><title>Asset 2</title><g id="Layer_2" data-name="Layer 2"><g id="Layer_1-2" data-name="Layer 1"><g class="cls-3"><g class="cls-4"><rect class="cls-5" width="22.78" height="29.24"/></g></g></g></g></svg>