<svg xmlns="http://www.w3.org/2000/svg" viewBox="0 0 140.2 13.13"><title>Asset 7</title><g id="Layer_2" data-name="Layer 2"><g id="Layer_1-2" data-name="Layer 1"><path d="M8.8,12.89a2.18,2.18,0,0,1-1.11.23,1.36,1.36,0,0,1-1-.33,1.48,1.48,0,0,1-.35-1.1,3.58,3.58,0,0,1-1.48,1.1,4.89,4.89,0,0,1-1.81.33A4.72,4.72,0,0,1,1.89,13a3,3,0,0,1-1-.45,2.4,2.4,0,0,1-.66-.81A2.73,2.73,0,0,1,0,10.52,2.8,2.8,0,0,1,.27,9.21,2.38,2.38,0,0,1,1,8.39a3.25,3.25,0,0,1,1-.48,11.06,11.06,0,0,1,1.17-.27c.42-.08.82-.15,1.2-.19a6.35,6.35,0,0,0,1-.18,1.51,1.51,0,0,0,.68-.35.84.84,0,0,0,.26-.66,1.59,1.59,0,0,0-.19-.81A1.3,1.3,0,0,0,5.64,5,2,2,0,0,0,5,4.76a6.11,6.11,0,0,0-.73,0,3.2,3.2,0,0,0-1.63.37,1.57,1.57,0,0,0-.71,1.4H.36A3.53,3.53,0,0,1,.72,5a2.77,2.77,0,0,1,.87-1,3.74,3.74,0,0,1,1.24-.54,6.57,6.57,0,0,1,1.5-.16,8.66,8.66,0,0,1,1.25.09,3.25,3.25,0,0,1,1.14.37,2.19,2.19,0,0,1,.81.79,2.42,2.42,0,0,1,.31,1.31v4.81a3.68,3.68,0,0,0,.06.79c0,.17.19.26.43.26a1.84,1.84,0,0,0,.47-.08ZM6.3,8.09a1.9,1.9,0,0,1-.76.32c-.31.06-.64.12-1,.16l-1,.14A4.15,4.15,0,0,0,2.57,9a1.65,1.65,0,0,0-.68.51,1.45,1.45,0,0,0-.26.91,1.29,1.29,0,0,0,.15.64,1.46,1.46,0,0,0,.4.42,1.63,1.63,0,0,0,.57.24,3.84,3.84,0,0,0,.69.07,3.58,3.58,0,0,0,1.3-.21A2.83,2.83,0,0,0,5.63,11a2.06,2.06,0,0,0,.51-.69,1.65,1.65,0,0,0,.16-.69Z"/><path d="M18.86,3.57v2h0a4.13,4.13,0,0,1,1.37-1.68,3.47,3.47,0,0,1,2.07-.51V5a4.37,4.37,0,0,0-1.58.25A2.6,2.6,0,0,0,19.71,6a3.23,3.23,0,0,0-.58,1.19A6.41,6.41,0,0,0,19,8.76v4.17H17.41V3.57Z"/><path d="M36,5.2a2.33,2.33,0,0,0-1.56-.49,2.89,2.89,0,0,0-1.39.3,2.46,2.46,0,0,0-.9.82A3.6,3.6,0,0,0,31.68,7a6.1,6.1,0,0,0-.15,1.36,5.32,5.32,0,0,0,.16,1.27,3.31,3.31,0,0,0,.48,1.1,2.52,2.52,0,0,0,.85.77,2.59,2.59,0,0,0,1.25.29,2.51,2.51,0,0,0,1.78-.6,2.72,2.72,0,0,0,.79-1.69h1.57a4.31,4.31,0,0,1-1.29,2.68,4.06,4.06,0,0,1-2.83.94,4.88,4.88,0,0,1-1.9-.34,3.59,3.59,0,0,1-1.37-1,4,4,0,0,1-.83-1.51,6.21,6.21,0,0,1-.28-1.93,6.88,6.88,0,0,1,.27-2A4.45,4.45,0,0,1,31,4.81a3.79,3.79,0,0,1,1.39-1.07,4.49,4.49,0,0,1,1.93-.39,5.61,5.61,0,0,1,1.5.19,3.69,3.69,0,0,1,1.23.59,3.12,3.12,0,0,1,.87,1,3.75,3.75,0,0,1,.44,1.44H36.77A2.34,2.34,0,0,0,36,5.2Z"/><path d="M48.55,0V4.94h0a2.11,2.11,0,0,1,.5-.73,3.07,3.07,0,0,1,.74-.49,3.53,3.53,0,0,1,.85-.28,4.26,4.26,0,0,1,.86-.09,4.07,4.07,0,0,1,1.54.25,2.52,2.52,0,0,1,1,.71,2.62,2.62,0,0,1,.54,1.08,5.83,5.83,0,0,1,.15,1.38v6.16H53.22V6.59a1.86,1.86,0,0,0-.51-1.38,1.89,1.89,0,0,0-1.39-.5,3.21,3.21,0,0,0-1.22.21,2.27,2.27,0,0,0-.86.62,2.83,2.83,0,0,0-.52.93,4,4,0,0,0-.17,1.17v5.29H47V0Z"/><path d="M64.41,1.88V0H66V1.88ZM66,3.57v9.36H64.41V3.57Z"/><path d="M79.22,3.57V4.92H77.35v5.82a1.63,1.63,0,0,0,.05.43.41.41,0,0,0,.17.25.76.76,0,0,0,.35.12,4.68,4.68,0,0,0,.59,0h.71v1.36H78a5,5,0,0,1-1-.09,1.46,1.46,0,0,1-.69-.29,1.23,1.23,0,0,1-.39-.62,3.36,3.36,0,0,1-.13-1v-6H74.22V3.57h1.59V.76h1.54V3.57Z"/><path d="M94.06,12.33a4.25,4.25,0,0,1-2.64.79,4.85,4.85,0,0,1-2-.36,3.8,3.8,0,0,1-1.38-1,4.28,4.28,0,0,1-.85-1.56,7.59,7.59,0,0,1-.31-2,5.88,5.88,0,0,1,.32-2,4.53,4.53,0,0,1,.92-1.53,4,4,0,0,1,1.39-1,4.31,4.31,0,0,1,1.77-.36,3.79,3.79,0,0,1,2.07.52,4,4,0,0,1,1.32,1.31,5.28,5.28,0,0,1,.69,1.74,7,7,0,0,1,.15,1.79h-7a3.48,3.48,0,0,0,.14,1.17,2.61,2.61,0,0,0,1.45,1.65,3.14,3.14,0,0,0,1.32.26,2.66,2.66,0,0,0,1.6-.46A2.21,2.21,0,0,0,93.9,10h1.52A3.76,3.76,0,0,1,94.06,12.33Zm-.37-6a2.63,2.63,0,0,0-.56-.84,2.59,2.59,0,0,0-.83-.56,2.64,2.64,0,0,0-1.06-.21,2.67,2.67,0,0,0-1.08.21,2.17,2.17,0,0,0-.82.57,2.84,2.84,0,0,0-.55.84,3.16,3.16,0,0,0-.23,1h5.37A3,3,0,0,0,93.69,6.32Z"/><path d="M109.63,5.2a2.33,2.33,0,0,0-1.56-.49,2.92,2.92,0,0,0-1.39.3,2.46,2.46,0,0,0-.9.82A3.6,3.6,0,0,0,105.3,7a6.09,6.09,0,0,0-.14,1.36,5.32,5.32,0,0,0,.15,1.27,3.31,3.31,0,0,0,.48,1.1,2.52,2.52,0,0,0,.85.77,2.59,2.59,0,0,0,1.25.29,2.51,2.51,0,0,0,1.78-.6,2.72,2.72,0,0,0,.79-1.69H112a4.27,4.27,0,0,1-1.3,2.68,4,4,0,0,1-2.83.94,4.83,4.83,0,0,1-1.89-.34,3.62,3.62,0,0,1-1.38-1,4,4,0,0,1-.83-1.51,6.21,6.21,0,0,1-.28-1.93,6.88,6.88,0,0,1,.27-2,4.45,4.45,0,0,1,.82-1.59A3.79,3.79,0,0,1,106,3.74a4.49,4.49,0,0,1,1.93-.39,5.55,5.55,0,0,1,1.5.19,3.69,3.69,0,0,1,1.23.59,3.27,3.27,0,0,1,.88,1A3.74,3.74,0,0,1,112,6.57h-1.59A2.34,2.34,0,0,0,109.63,5.2Z"/><path d="M124.64,3.57V4.92h-1.87v5.82a1.63,1.63,0,0,0,0,.43.41.41,0,0,0,.17.25.76.76,0,0,0,.35.12,4.68,4.68,0,0,0,.59,0h.71v1.36h-1.18a5,5,0,0,1-1-.09,1.46,1.46,0,0,1-.69-.29,1.23,1.23,0,0,1-.39-.62,3.36,3.36,0,0,1-.13-1v-6h-1.59V3.57h1.59V.76h1.54V3.57Z"/><path d="M134,10.83a1.64,1.64,0,0,0,.57.57,2.54,2.54,0,0,0,.8.29,4.53,4.53,0,0,0,.91.1,5.06,5.06,0,0,0,.76-.06,2.7,2.7,0,0,0,.73-.2,1.38,1.38,0,0,0,.56-.42,1.18,1.18,0,0,0,.21-.72,1,1,0,0,0-.45-.9A3.81,3.81,0,0,0,137,9c-.45-.13-.94-.24-1.48-.35A7.2,7.2,0,0,1,134,8.21a3.07,3.07,0,0,1-1.13-.79A2.06,2.06,0,0,1,132.46,6a2.25,2.25,0,0,1,.31-1.21,2.6,2.6,0,0,1,.82-.83,3.89,3.89,0,0,1,1.12-.47A5.32,5.32,0,0,1,136,3.35a6.8,6.8,0,0,1,1.47.14A3.25,3.25,0,0,1,138.6,4a2.38,2.38,0,0,1,.82.9,3.4,3.4,0,0,1,.37,1.42h-1.54a1.55,1.55,0,0,0-.24-.75,1.53,1.53,0,0,0-.5-.48,2.34,2.34,0,0,0-.68-.26,3.19,3.19,0,0,0-.75-.08,5.49,5.49,0,0,0-.7,0,2.4,2.4,0,0,0-.64.19,1.23,1.23,0,0,0-.47.36.93.93,0,0,0-.19.59.87.87,0,0,0,.28.66,2.31,2.31,0,0,0,.72.44,7.16,7.16,0,0,0,1,.29l1.08.24c.39.09.77.19,1.13.31a3.58,3.58,0,0,1,1,.48,2.25,2.25,0,0,1,.69.75,2.16,2.16,0,0,1,.26,1.12,2.54,2.54,0,0,1-.35,1.41,2.76,2.76,0,0,1-.92.91,3.83,3.83,0,0,1-1.29.48,7.66,7.66,0,0,1-1.42.13,6.46,6.46,0,0,1-1.48-.16,3.61,3.61,0,0,1-1.25-.53,2.74,2.74,0,0,1-.87-1,3.3,3.3,0,0,1-.36-1.48h1.53A1.85,1.85,0,0,0,134,10.83Z"/></g></g></svg>