<svg xmlns="http://www.w3.org/2000/svg" viewBox="0 0 140.2 77.3"><defs><style>.cls-1,.cls-2{fill:#fff;}.cls-1{fill-rule:evenodd;}</style></defs><title>Asset 1</title><g id="Layer_2" data-name="Layer 2"><g id="Layer_1-2" data-name="Layer 1"><polygon class="cls-1" points="83.06 58.5 139.74 58.5 139.74 1.82 137.15 0 137.15 55.92 81.23 55.92 83.06 58.5"/><path class="cls-2" d="M4.36,24.36v3.87h.11A9.59,9.59,0,0,1,13,23.74a9.61,9.61,0,0,1,4.44,1,5.75,5.75,0,0,1,2.8,3.47,9.19,9.19,0,0,1,3.5-3.31,9.85,9.85,0,0,1,4.76-1.18,13.76,13.76,0,0,1,3.6.44,7.45,7.45,0,0,1,2.75,1.35,6.11,6.11,0,0,1,1.79,2.37,8.74,8.74,0,0,1,.63,3.49V50.72H32.92V33.43a12.76,12.76,0,0,0-.2-2.29A4.85,4.85,0,0,0,32,29.28,3.72,3.72,0,0,0,30.4,28a6.18,6.18,0,0,0-2.58-.46,6.82,6.82,0,0,0-5.05,1.84,6.61,6.61,0,0,0-1.83,4.89V50.72H16.6V33.43a10.67,10.67,0,0,0-.23-2.34,4.74,4.74,0,0,0-.79-1.86A3.64,3.64,0,0,0,14.08,28a5.83,5.83,0,0,0-2.42-.43,6.47,6.47,0,0,0-3.24.76,7.57,7.57,0,0,0-2.2,1.84A7.38,7.38,0,0,0,5,32.39a6.39,6.39,0,0,0-.38,1.91V50.72H.28V24.36Z"/><path class="cls-2" d="M63.16,29a6.58,6.58,0,0,0-4.39-1.38,8,8,0,0,0-3.92.87,6.91,6.91,0,0,0-2.53,2.29A9.59,9.59,0,0,0,51,34a18,18,0,0,0-.41,3.85A14.67,14.67,0,0,0,51,41.44a9.34,9.34,0,0,0,1.35,3.08,6.74,6.74,0,0,0,2.39,2.17,7.13,7.13,0,0,0,3.52.82,7.09,7.09,0,0,0,5-1.69,7.61,7.61,0,0,0,2.21-4.74h4.44a12.14,12.14,0,0,1-3.65,7.55,11.43,11.43,0,0,1-8,2.65,13.69,13.69,0,0,1-5.33-1,10.32,10.32,0,0,1-3.87-2.75,11.92,11.92,0,0,1-2.35-4.26A18,18,0,0,1,46,37.87a19.3,19.3,0,0,1,.77-5.53,12.69,12.69,0,0,1,2.32-4.49,10.8,10.8,0,0,1,3.9-3,12.76,12.76,0,0,1,5.46-1.1,15.79,15.79,0,0,1,4.2.54,10.24,10.24,0,0,1,3.47,1.66,9,9,0,0,1,2.47,2.83,10.36,10.36,0,0,1,1.23,4.05H65.3A6.57,6.57,0,0,0,63.16,29Z"/><path class="cls-2" d="M90.87,12a4.8,4.8,0,0,1,1-1.75,4.51,4.51,0,0,1,1.63-1.17,5.51,5.51,0,0,1,2.21-.42,6,6,0,0,1,1.91.3,4.56,4.56,0,0,1,1.56.87,4,4,0,0,1,1,1.4,4.59,4.59,0,0,1,.39,1.95,4.94,4.94,0,0,1-.32,1.83,5.52,5.52,0,0,1-.85,1.43,7.36,7.36,0,0,1-1.22,1.14c-.46.34-.93.66-1.42,1s-1,.59-1.46.87a12.43,12.43,0,0,0-1.33.92,6.44,6.44,0,0,0-1,1.05,3,3,0,0,0-.57,1.29h8v1.66H90.18a8.36,8.36,0,0,1,.5-2.37,6.4,6.4,0,0,1,1-1.72A7.13,7.13,0,0,1,93,19a17.07,17.07,0,0,1,1.57-1q1-.62,1.74-1.14a8.12,8.12,0,0,0,1.25-1,3.8,3.8,0,0,0,.75-1.15,3.74,3.74,0,0,0,.26-1.44A2.63,2.63,0,0,0,98.34,12a2.82,2.82,0,0,0-1.61-1.47,3.51,3.51,0,0,0-1.17-.2,2.73,2.73,0,0,0-1.41.35,2.82,2.82,0,0,0-1,.89,3.79,3.79,0,0,0-.54,1.25,5.09,5.09,0,0,0-.14,1.4H90.63A6.14,6.14,0,0,1,90.87,12Z"/><path class="cls-2" d="M8.8,77.06a2.18,2.18,0,0,1-1.11.24,1.36,1.36,0,0,1-1-.34,1.47,1.47,0,0,1-.35-1.09A3.64,3.64,0,0,1,4.91,77a4.9,4.9,0,0,1-1.81.34,4.72,4.72,0,0,1-1.21-.15,2.81,2.81,0,0,1-1-.45,2.4,2.4,0,0,1-.66-.81,3.19,3.19,0,0,1,0-2.5A2.32,2.32,0,0,1,1,72.56a3.25,3.25,0,0,1,1-.48,11.06,11.06,0,0,1,1.17-.27c.42-.08.82-.15,1.2-.19a6.35,6.35,0,0,0,1-.18,1.61,1.61,0,0,0,.68-.34.86.86,0,0,0,.26-.67,1.62,1.62,0,0,0-.19-.81,1.38,1.38,0,0,0-.49-.47A2,2,0,0,0,5,68.93a6.11,6.11,0,0,0-.73-.05,3.2,3.2,0,0,0-1.63.37,1.57,1.57,0,0,0-.71,1.4H.36a3.45,3.45,0,0,1,.36-1.46,2.81,2.81,0,0,1,.87-1,3.74,3.74,0,0,1,1.24-.54,6.57,6.57,0,0,1,1.5-.16,8.66,8.66,0,0,1,1.25.09A3.25,3.25,0,0,1,6.72,68a2.19,2.19,0,0,1,.81.79,2.43,2.43,0,0,1,.31,1.32v4.8a3.86,3.86,0,0,0,.06.8c0,.16.19.25.43.25a2.33,2.33,0,0,0,.47-.07Zm-2.5-4.8a1.9,1.9,0,0,1-.76.32c-.31.06-.64.12-1,.16l-1,.15a3.69,3.69,0,0,0-.94.26,1.75,1.75,0,0,0-.68.51,1.45,1.45,0,0,0-.26.91,1.29,1.29,0,0,0,.15.64,1.46,1.46,0,0,0,.4.42,1.63,1.63,0,0,0,.57.24,3.84,3.84,0,0,0,.69.07,3.58,3.58,0,0,0,1.3-.21,2.83,2.83,0,0,0,.89-.52,2.06,2.06,0,0,0,.51-.69,1.65,1.65,0,0,0,.16-.69Z"/><path class="cls-2" d="M18.86,67.74v2h0A4.13,4.13,0,0,1,20.27,68a3.54,3.54,0,0,1,2.07-.51v1.63a4.37,4.37,0,0,0-1.58.25,2.53,2.53,0,0,0-1.05.75,3.11,3.11,0,0,0-.58,1.18,6.47,6.47,0,0,0-.18,1.6V77.1H17.41V67.74Z"/><path class="cls-2" d="M36,69.37a2.33,2.33,0,0,0-1.56-.49,2.78,2.78,0,0,0-1.39.31,2.35,2.35,0,0,0-.9.81,3.6,3.6,0,0,0-.48,1.17,6.12,6.12,0,0,0-.15,1.37,5.31,5.31,0,0,0,.16,1.26,3.31,3.31,0,0,0,.48,1.1,2.52,2.52,0,0,0,.85.77,2.59,2.59,0,0,0,1.25.29,2.51,2.51,0,0,0,1.78-.6,2.71,2.71,0,0,0,.79-1.68h1.57a4.31,4.31,0,0,1-1.29,2.67,4.07,4.07,0,0,1-2.83,1,4.88,4.88,0,0,1-1.9-.35A3.59,3.59,0,0,1,31,76a4,4,0,0,1-.83-1.51,6.19,6.19,0,0,1-.28-1.92,7,7,0,0,1,.27-2A4.45,4.45,0,0,1,31,69a3.9,3.9,0,0,1,1.39-1.07,4.49,4.49,0,0,1,1.93-.39,5.61,5.61,0,0,1,1.5.19,3.69,3.69,0,0,1,1.23.59,3.12,3.12,0,0,1,.87,1,3.75,3.75,0,0,1,.44,1.44H36.77A2.34,2.34,0,0,0,36,69.37Z"/><path class="cls-2" d="M48.55,64.17v4.94h0a2.11,2.11,0,0,1,.5-.73,3.07,3.07,0,0,1,.74-.49,3.53,3.53,0,0,1,.85-.28,4.26,4.26,0,0,1,.86-.09,4.07,4.07,0,0,1,1.54.25,2.52,2.52,0,0,1,1,.71,2.62,2.62,0,0,1,.54,1.08,5.83,5.83,0,0,1,.15,1.38V77.1H53.22V70.76a1.83,1.83,0,0,0-.51-1.37,1.86,1.86,0,0,0-1.39-.51,3,3,0,0,0-1.22.22,2.25,2.25,0,0,0-.86.61,2.83,2.83,0,0,0-.52.93,4,4,0,0,0-.17,1.17V77.1H47V64.17Z"/><path class="cls-2" d="M64.41,66.05V64.17H66v1.88ZM66,67.74V77.1H64.41V67.74Z"/><path class="cls-2" d="M79.22,67.74V69.1H77.35v5.81a1.63,1.63,0,0,0,.05.43.41.41,0,0,0,.17.25.76.76,0,0,0,.35.12,4.68,4.68,0,0,0,.59,0h.71V77.1H78A5.86,5.86,0,0,1,77,77a1.57,1.57,0,0,1-.69-.3,1.23,1.23,0,0,1-.39-.62,3.32,3.32,0,0,1-.13-1v-6H74.22V67.74h1.59V64.93h1.54v2.81Z"/><path class="cls-2" d="M94.06,76.5a4.25,4.25,0,0,1-2.64.8,4.68,4.68,0,0,1-2-.37,3.8,3.8,0,0,1-1.38-1,4.2,4.2,0,0,1-.85-1.56,7.59,7.59,0,0,1-.31-2,5.88,5.88,0,0,1,.32-2,4.53,4.53,0,0,1,.92-1.53,4,4,0,0,1,1.39-1,4.31,4.31,0,0,1,1.77-.36A3.79,3.79,0,0,1,93.4,68a4,4,0,0,1,1.32,1.31,5.28,5.28,0,0,1,.69,1.74,7,7,0,0,1,.15,1.79h-7a3.48,3.48,0,0,0,.14,1.17,2.48,2.48,0,0,0,.53,1,2.54,2.54,0,0,0,.92.68,3.14,3.14,0,0,0,1.32.26,2.59,2.59,0,0,0,1.6-.46,2.21,2.21,0,0,0,.83-1.37h1.52A3.76,3.76,0,0,1,94.06,76.5Zm-.37-6a2.63,2.63,0,0,0-.56-.84,2.76,2.76,0,0,0-.83-.56,2.64,2.64,0,0,0-1.06-.21,2.67,2.67,0,0,0-1.08.21,2.41,2.41,0,0,0-.82.57,2.84,2.84,0,0,0-.55.84,3.16,3.16,0,0,0-.23,1h5.37A3,3,0,0,0,93.69,70.49Z"/><path class="cls-2" d="M109.63,69.37a2.33,2.33,0,0,0-1.56-.49,2.8,2.8,0,0,0-1.39.31,2.35,2.35,0,0,0-.9.81,3.6,3.6,0,0,0-.48,1.17,6.12,6.12,0,0,0-.14,1.37,5.3,5.3,0,0,0,.15,1.26,3.31,3.31,0,0,0,.48,1.1,2.52,2.52,0,0,0,.85.77,2.59,2.59,0,0,0,1.25.29,2.51,2.51,0,0,0,1.78-.6,2.71,2.71,0,0,0,.79-1.68H112a4.27,4.27,0,0,1-1.3,2.67,4.05,4.05,0,0,1-2.83,1A4.83,4.83,0,0,1,106,77a3.62,3.62,0,0,1-1.38-1,4,4,0,0,1-.83-1.51,6.19,6.19,0,0,1-.28-1.92,7,7,0,0,1,.27-2,4.45,4.45,0,0,1,.82-1.59A3.9,3.9,0,0,1,106,67.91a4.49,4.49,0,0,1,1.93-.39,5.55,5.55,0,0,1,1.5.19,3.69,3.69,0,0,1,1.23.59,3.27,3.27,0,0,1,.88,1,3.74,3.74,0,0,1,.43,1.44h-1.59A2.34,2.34,0,0,0,109.63,69.37Z"/><path class="cls-2" d="M124.64,67.74V69.1h-1.87v5.81a1.63,1.63,0,0,0,0,.43.41.41,0,0,0,.17.25.76.76,0,0,0,.35.12,4.68,4.68,0,0,0,.59,0h.71V77.1h-1.18a5.86,5.86,0,0,1-1-.08,1.57,1.57,0,0,1-.69-.3,1.23,1.23,0,0,1-.39-.62,3.32,3.32,0,0,1-.13-1v-6h-1.59V67.74h1.59V64.93h1.54v2.81Z"/><path class="cls-2" d="M134,75a1.7,1.7,0,0,0,.57.56,2.55,2.55,0,0,0,.8.3,4.53,4.53,0,0,0,.91.09,5.06,5.06,0,0,0,.76-.06,2.38,2.38,0,0,0,.73-.2,1.3,1.3,0,0,0,.56-.42,1.18,1.18,0,0,0,.21-.72,1,1,0,0,0-.45-.9,3.81,3.81,0,0,0-1.13-.5c-.45-.13-.94-.24-1.48-.34a7.89,7.89,0,0,1-1.47-.44,3.07,3.07,0,0,1-1.13-.79,2,2,0,0,1-.45-1.41,2.25,2.25,0,0,1,.31-1.21,2.6,2.6,0,0,1,.82-.83,3.89,3.89,0,0,1,1.12-.47,5.32,5.32,0,0,1,1.24-.15,7.49,7.49,0,0,1,1.47.14,3.25,3.25,0,0,1,1.18.47,2.38,2.38,0,0,1,.82.9,3.44,3.44,0,0,1,.37,1.42h-1.54a1.55,1.55,0,0,0-.24-.75,1.53,1.53,0,0,0-.5-.48,2.34,2.34,0,0,0-.68-.26,3.82,3.82,0,0,0-.75-.08,5.49,5.49,0,0,0-.7.05,2.4,2.4,0,0,0-.64.19,1.23,1.23,0,0,0-.47.36,1,1,0,0,0-.19.59.87.87,0,0,0,.28.66,2.31,2.31,0,0,0,.72.44,7.16,7.16,0,0,0,1,.29l1.08.24c.39.09.77.19,1.13.31a3.58,3.58,0,0,1,1,.48,2.25,2.25,0,0,1,.69.75,2.16,2.16,0,0,1,.26,1.12,2.6,2.6,0,0,1-.35,1.42,2.83,2.83,0,0,1-.92.9,3.83,3.83,0,0,1-1.29.48,7.68,7.68,0,0,1-1.42.14,6.45,6.45,0,0,1-1.48-.17,3.61,3.61,0,0,1-1.25-.53,2.66,2.66,0,0,1-.87-1,3.25,3.25,0,0,1-.36-1.47h1.53A1.92,1.92,0,0,0,134,75Z"/></g></g></svg>