<svg xmlns="http://www.w3.org/2000/svg" viewBox="0 0 69.66 27.54"><defs><style>.cls-1{fill:#fff;}</style></defs><title>Asset 8</title><g id="Layer_2" data-name="Layer 2"><g id="Layer_1-2" data-name="Layer 1"><path class="cls-1" d="M4.08.61V4.49h.1A9.59,9.59,0,0,1,12.7,0a9.54,9.54,0,0,1,4.43,1,5.74,5.74,0,0,1,2.81,3.47,9.26,9.26,0,0,1,3.49-3.32A9.91,9.91,0,0,1,28.2,0a14.13,14.13,0,0,1,3.59.43,7.36,7.36,0,0,1,2.76,1.36,6.09,6.09,0,0,1,1.78,2.37A8.53,8.53,0,0,1,37,7.65V27H32.64V9.69a12,12,0,0,0-.21-2.3,4.69,4.69,0,0,0-.76-1.86,4,4,0,0,0-1.56-1.25,6.25,6.25,0,0,0-2.57-.46,6.82,6.82,0,0,0-5.05,1.84,6.6,6.6,0,0,0-1.84,4.9V27H16.32V9.69a11.49,11.49,0,0,0-.23-2.35,5,5,0,0,0-.79-1.86,3.8,3.8,0,0,0-1.51-1.22,5.78,5.78,0,0,0-2.42-.44,6.47,6.47,0,0,0-3.24.77A7.37,7.37,0,0,0,4.72,8.64a6.25,6.25,0,0,0-.39,1.92V27H0V.61Z"/><path class="cls-1" d="M62.87,5.2a6.55,6.55,0,0,0-4.38-1.38,8.07,8.07,0,0,0-3.93.87A7,7,0,0,0,52,7a9.59,9.59,0,0,0-1.35,3.29,17.38,17.38,0,0,0-.41,3.84,14.54,14.54,0,0,0,.43,3.57,9.61,9.61,0,0,0,1.35,3.09A6.88,6.88,0,0,0,54.46,23a7.24,7.24,0,0,0,3.52.81,7.1,7.1,0,0,0,5-1.68,7.56,7.56,0,0,0,2.22-4.74h4.44A12.16,12.16,0,0,1,66,24.88a11.46,11.46,0,0,1-8,2.66,13.84,13.84,0,0,1-5.33-1,10.29,10.29,0,0,1-3.87-2.76,11.87,11.87,0,0,1-2.35-4.25,17.7,17.7,0,0,1-.79-5.44,19.35,19.35,0,0,1,.76-5.53A13,13,0,0,1,48.77,4.1a11,11,0,0,1,3.9-3A12.82,12.82,0,0,1,58.13,0a15.81,15.81,0,0,1,4.21.54,10.32,10.32,0,0,1,3.47,1.65A9.14,9.14,0,0,1,68.28,5,10.52,10.52,0,0,1,69.5,9.08H65A6.66,6.66,0,0,0,62.87,5.2Z"/></g></g></svg>