<svg xmlns="http://www.w3.org/2000/svg" xmlns:xlink="http://www.w3.org/1999/xlink" viewBox="0 0 87.64 42.33"><defs><style>.cls-1,.cls-2,.cls-3{fill:none;}.cls-1{clip-rule:evenodd;}.cls-3{fill-rule:evenodd;}.cls-4{clip-path:url(#clip-path);}.cls-5{clip-path:url(#clip-path-2);}.cls-6{fill:#fff;}.cls-7{clip-path:url(#clip-path-3);}</style><clipPath id="clip-path" transform="translate(-631 -446.18)"><path class="cls-1" d="M640.8,451.9v4.55h.12a12.09,12.09,0,0,1,15.23-4.07,6.71,6.71,0,0,1,3.3,4.07,10.82,10.82,0,0,1,4.11-3.89,11.59,11.59,0,0,1,5.61-1.38,16.29,16.29,0,0,1,4.23.51,8.77,8.77,0,0,1,3.24,1.59,7.19,7.19,0,0,1,2.1,2.78,10.16,10.16,0,0,1,.75,4.1v22.69h-5.1v-20.3a14.46,14.46,0,0,0-.24-2.7,5.51,5.51,0,0,0-.9-2.18,4.49,4.49,0,0,0-1.83-1.47,7.27,7.27,0,0,0-3-.54,8,8,0,0,0-5.94,2.16,7.76,7.76,0,0,0-2.16,5.75v19.28h-5.1v-20.3a13.17,13.17,0,0,0-.27-2.76,5.83,5.83,0,0,0-.93-2.18,4.35,4.35,0,0,0-1.77-1.44,6.86,6.86,0,0,0-2.85-.51,7.6,7.6,0,0,0-3.81.9,8.61,8.61,0,0,0-4,4.76,7.36,7.36,0,0,0-.45,2.24v19.28H636v-31Z"/></clipPath><clipPath id="clip-path-2" transform="translate(-631 -446.18)"><rect class="cls-2" width="1440" height="3260"/></clipPath><clipPath id="clip-path-3" transform="translate(-631 -446.18)"><path class="cls-1" d="M705.67,457.29a7.74,7.74,0,0,0-5.16-1.62,9.5,9.5,0,0,0-4.62,1,8.23,8.23,0,0,0-3,2.69,11.31,11.31,0,0,0-1.59,3.86,21.06,21.06,0,0,0-.48,4.52,17.17,17.17,0,0,0,.51,4.19,11.18,11.18,0,0,0,1.59,3.62,8,8,0,0,0,2.82,2.55,8.44,8.44,0,0,0,4.14,1,8.35,8.35,0,0,0,5.91-2,8.93,8.93,0,0,0,2.61-5.57h5.22a14.25,14.25,0,0,1-4.29,8.86q-3.45,3.12-9.38,3.11a16.17,16.17,0,0,1-6.26-1.14,12.12,12.12,0,0,1-4.56-3.23,14,14,0,0,1-2.76-5,20.78,20.78,0,0,1-.93-6.38,22.69,22.69,0,0,1,.9-6.5,15,15,0,0,1,2.73-5.27,12.8,12.8,0,0,1,4.59-3.53,15,15,0,0,1,6.41-1.29,18.82,18.82,0,0,1,4.95.63,12.1,12.1,0,0,1,4.08,1.95,10.66,10.66,0,0,1,2.91,3.32,12.28,12.28,0,0,1,1.44,4.76h-5.28a7.76,7.76,0,0,0-2.52-4.55"/></clipPath></defs><title>Asset 1</title><g id="Layer_2" data-name="Layer 2"><g id="Layer_1-2" data-name="Layer 1"><g class="cls-4"><g class="cls-5"><rect class="cls-6" width="53.47" height="41.67"/></g></g><g class="cls-7"><g class="cls-5"><rect class="cls-6" x="49.46" width="38.18" height="42.33"/></g></g><g class="cls-4"><g class="cls-5"><rect class="cls-6" width="53.47" height="41.67"/></g></g><g class="cls-7"><g class="cls-5"><rect class="cls-6" x="49.46" width="38.18" height="42.33"/></g></g></g></g></svg>