<svg xmlns="http://www.w3.org/2000/svg" viewBox="0 0 168.92 71.77"><defs><style>.cls-1{fill-rule:evenodd;}</style></defs><title>Asset 3</title><g id="Layer_2" data-name="Layer 2"><g id="Layer_1-2" data-name="Layer 1"><path class="cls-1" d="M108.43,14.59a5.76,5.76,0,0,1,1.18-2.16,5.56,5.56,0,0,1,2-1.43,6.82,6.82,0,0,1,2.72-.51,7.42,7.42,0,0,1,2.35.36,5.74,5.74,0,0,1,1.92,1.06,4.94,4.94,0,0,1,1.29,1.72,5.65,5.65,0,0,1,.48,2.39,6,6,0,0,1-.39,2.25,6.37,6.37,0,0,1-1,1.75,8.79,8.79,0,0,1-1.49,1.4q-.84.62-1.74,1.19l-1.8,1.07a14.39,14.39,0,0,0-1.64,1.13A7.57,7.57,0,0,0,111,26.12a3.64,3.64,0,0,0-.69,1.59h9.89v2H107.59a10.17,10.17,0,0,1,.61-2.92,7.74,7.74,0,0,1,1.21-2.1,9.09,9.09,0,0,1,1.66-1.57q.92-.68,1.93-1.28,1.22-.76,2.15-1.4a9.67,9.67,0,0,0,1.54-1.29A4.34,4.34,0,0,0,117.92,16a3.32,3.32,0,0,0-.3-1.43,3.43,3.43,0,0,0-2-1.81,4.25,4.25,0,0,0-1.44-.24,3.35,3.35,0,0,0-1.73.42,3.62,3.62,0,0,0-1.18,1.1,4.62,4.62,0,0,0-.67,1.53,6.56,6.56,0,0,0-.18,1.72h-2.31a7.75,7.75,0,0,1,.3-2.71"/><polygon class="cls-1" points="99.29 71.77 168.92 71.77 168.92 2.24 165.74 0 165.74 68.6 97.05 68.6 99.29 71.77"/><path class="cls-1" d="M4.8,37.69v4.55h.12a11.28,11.28,0,0,1,10-5.27,11.27,11.27,0,0,1,5.22,1.2,6.71,6.71,0,0,1,3.3,4.07,10.82,10.82,0,0,1,4.11-3.89A11.59,11.59,0,0,1,33.15,37a16.26,16.26,0,0,1,4.23.51,8.76,8.76,0,0,1,3.24,1.59,7.19,7.19,0,0,1,2.1,2.78,10.17,10.17,0,0,1,.75,4.1V68.65h-5.1V48.35a14.46,14.46,0,0,0-.24-2.7,5.5,5.5,0,0,0-.9-2.18A4.49,4.49,0,0,0,35.4,42a7.27,7.27,0,0,0-3-.54,8,8,0,0,0-5.94,2.16,7.76,7.76,0,0,0-2.16,5.75V68.65h-5.1V48.35a13.17,13.17,0,0,0-.27-2.76A5.83,5.83,0,0,0,18,43.41,4.34,4.34,0,0,0,16.22,42a6.86,6.86,0,0,0-2.85-.51,7.6,7.6,0,0,0-3.81.9,8.61,8.61,0,0,0-4,4.76,7.36,7.36,0,0,0-.45,2.24V68.65H0v-31Z"/><path class="cls-1" d="M69.67,43.08a7.73,7.73,0,0,0-5.16-1.62,9.5,9.5,0,0,0-4.62,1,8.23,8.23,0,0,0-3,2.7A11.3,11.3,0,0,0,55.34,49a21.05,21.05,0,0,0-.48,4.52,17.16,17.16,0,0,0,.51,4.19A11.18,11.18,0,0,0,57,61.38a8,8,0,0,0,2.82,2.54,8.43,8.43,0,0,0,4.14,1,8.35,8.35,0,0,0,5.91-2,8.93,8.93,0,0,0,2.61-5.57h5.22a14.25,14.25,0,0,1-4.29,8.86Q69.91,69.31,64,69.31a16.18,16.18,0,0,1-6.26-1.14,12.12,12.12,0,0,1-4.56-3.23,14,14,0,0,1-2.76-5,20.79,20.79,0,0,1-.93-6.38,22.68,22.68,0,0,1,.9-6.5,15,15,0,0,1,2.73-5.27,12.8,12.8,0,0,1,4.59-3.53A15,15,0,0,1,64.09,37a18.81,18.81,0,0,1,4.95.63,12.11,12.11,0,0,1,4.08,1.94A10.67,10.67,0,0,1,76,42.87a12.29,12.29,0,0,1,1.44,4.76H72.19a7.76,7.76,0,0,0-2.52-4.55"/></g></g></svg>