<svg id="SvgjsSvg1000" xmlns="http://www.w3.org/2000/svg" version="1.1" xmlns:xlink="http://www.w3.org/1999/xlink" xmlns:svgjs="http://svgjs.com/svgjs" width="22" height="23" viewBox="0 0 22 23"><title>Rectangle 175 + Rectangle 175 Copy 2</title><desc>Created with Avocode.</desc><defs id="SvgjsDefs1001"><clipPath id="SvgjsClipPath1010"><path id="SvgjsPath1009" d="M34.83883 17.24695C35.229350000000004 16.85643 35.86252 16.85643 36.25304 17.24695L36.25304 17.24695C36.64356 17.637469999999997 36.64356 18.270639999999997 36.25304 18.66116L17.16116 37.75304C16.77064 38.14356 16.13747 38.14356 15.746949999999998 37.75304L15.746949999999998 37.75304C15.356429999999998 37.362519999999996 15.356429999999998 36.72935 15.746949999999998 36.33883Z " fill="#ffffff"></path></clipPath><clipPath id="SvgjsClipPath1014"><path id="SvgjsPath1013" d="M36.25305 36.33883C36.643570000000004 36.729350000000004 36.643570000000004 37.36252 36.25305 37.75304L36.25305 37.75304C35.86253 38.14356 35.22936 38.14356 34.838840000000005 37.75304L15.746960000000005 18.66116C15.356440000000005 18.27064 15.356440000000005 17.63747 15.746960000000005 17.24695L15.746960000000005 17.24695C16.137480000000004 16.85643 16.770650000000003 16.85643 17.161170000000006 17.24695Z " fill="#ffffff"></path></clipPath></defs><path id="SvgjsPath1007" d="M34.83883 17.24695C35.229350000000004 16.85643 35.86252 16.85643 36.25304 17.24695L36.25304 17.24695C36.64356 17.637469999999997 36.64356 18.270639999999997 36.25304 18.66116L17.16116 37.75304C16.77064 38.14356 16.13747 38.14356 15.746949999999998 37.75304L15.746949999999998 37.75304C15.356429999999998 37.362519999999996 15.356429999999998 36.72935 15.746949999999998 36.33883Z " fill="#d8d8d8" fill-opacity="1" transform="matrix(1,0,0,1,-15,-16)"></path><path id="SvgjsPath1008" d="M34.83883 17.24695C35.229350000000004 16.85643 35.86252 16.85643 36.25304 17.24695L36.25304 17.24695C36.64356 17.637469999999997 36.64356 18.270639999999997 36.25304 18.66116L17.16116 37.75304C16.77064 38.14356 16.13747 38.14356 15.746949999999998 37.75304L15.746949999999998 37.75304C15.356429999999998 37.362519999999996 15.356429999999998 36.72935 15.746949999999998 36.33883Z " fill-opacity="0" fill="#ffffff" stroke-dasharray="0" stroke-linejoin="miter" stroke-linecap="butt" stroke-opacity="1" stroke="#ffffff" stroke-miterlimit="50" stroke-width="2" clip-path="url(&quot;#SvgjsClipPath1010&quot;)" transform="matrix(1,0,0,1,-15,-16)"></path><path id="SvgjsPath1011" d="M36.25305 36.33883C36.643570000000004 36.729350000000004 36.643570000000004 37.36252 36.25305 37.75304L36.25305 37.75304C35.86253 38.14356 35.22936 38.14356 34.838840000000005 37.75304L15.746960000000005 18.66116C15.356440000000005 18.27064 15.356440000000005 17.63747 15.746960000000005 17.24695L15.746960000000005 17.24695C16.137480000000004 16.85643 16.770650000000003 16.85643 17.161170000000006 17.24695Z " fill="#d8d8d8" fill-opacity="1" transform="matrix(1,0,0,1,-15,-16)"></path><path id="SvgjsPath1012" d="M36.25305 36.33883C36.643570000000004 36.729350000000004 36.643570000000004 37.36252 36.25305 37.75304L36.25305 37.75304C35.86253 38.14356 35.22936 38.14356 34.838840000000005 37.75304L15.746960000000005 18.66116C15.356440000000005 18.27064 15.356440000000005 17.63747 15.746960000000005 17.24695L15.746960000000005 17.24695C16.137480000000004 16.85643 16.770650000000003 16.85643 17.161170000000006 17.24695Z " fill-opacity="0" fill="#ffffff" stroke-dasharray="0" stroke-linejoin="miter" stroke-linecap="butt" stroke-opacity="1" stroke="#ffffff" stroke-miterlimit="50" stroke-width="2" clip-path="url(&quot;#SvgjsClipPath1014&quot;)" transform="matrix(1,0,0,1,-15,-16)"></path></svg>